HIERARCHY
ROOT Hips
{
	OFFSET 0.000000 0.000000 0.000000
	CHANNELS 6 Xposition Yposition Zposition Xrotation Zrotation Yrotation
	JOINT Spine
	{
		OFFSET 0.000000 0.000001 -5.265335
		CHANNELS 6 Xposition Yposition Zposition Xrotation Zrotation Yrotation
		JOINT Spine1
		{
			OFFSET 0.000000 0.000007 -11.914386
			CHANNELS 6 Xposition Yposition Zposition Xrotation Zrotation Yrotation
			JOINT Neck
			{
				OFFSET 0.000000 0.000007 -13.198612
				CHANNELS 6 Xposition Yposition Zposition Xrotation Zrotation Yrotation
				JOINT Head
				{
					OFFSET 0.000000 1.284232 -9.952774
					CHANNELS 6 Xposition Yposition Zposition Xrotation Zrotation Yrotation
					End Site
					{
						OFFSET 0.000000 0.000007 -12.842283
					}
				}
			}
			JOINT LeftShoulder
			{
				OFFSET 2.563100 -0.280098 -10.769156
				CHANNELS 6 Xposition Yposition Zposition Xrotation Zrotation Yrotation
				JOINT LeftArm
				{
					OFFSET 7.428645 0.000000 0.000000
					CHANNELS 6 Xposition Yposition Zposition Xrotation Zrotation Yrotation
					JOINT LeftForeArm
					{
						OFFSET 19.264490 0.000000 0.000000
						CHANNELS 6 Xposition Yposition Zposition Xrotation Zrotation Yrotation
						JOINT LeftHand
						{
							OFFSET 17.229633 0.000000 0.000000
							CHANNELS 6 Xposition Yposition Zposition Xrotation Zrotation Yrotation
							End Site
							{
								OFFSET 9.631715 0.000000 0.000000
							}
						}
					}
				}
			}
			JOINT RightShoulder
			{
				OFFSET -2.568340 -0.280098 -10.769156
				CHANNELS 6 Xposition Yposition Zposition Xrotation Zrotation Yrotation
				JOINT RightArm
				{
					OFFSET -7.428645 0.000000 0.000000
					CHANNELS 6 Xposition Yposition Zposition Xrotation Zrotation Yrotation
					JOINT RightForeArm
					{
						OFFSET -19.264490 0.000000 0.000000
						CHANNELS 6 Xposition Yposition Zposition Xrotation Zrotation Yrotation
						JOINT RightHand
						{
							OFFSET -17.229633 0.000000 0.000000
							CHANNELS 6 Xposition Yposition Zposition Xrotation Zrotation Yrotation
							End Site
							{
								OFFSET -9.631715 0.000000 0.000000
							}
						}
					}
				}
			}
		}
	}
	JOINT LeftUpLeg
	{
		OFFSET 6.421140 0.000000 0.000000
		CHANNELS 6 Xposition Yposition Zposition Xrotation Zrotation Yrotation
		JOINT LeftLeg
		{
			OFFSET 0.000000 -0.000015 33.420120
			CHANNELS 6 Xposition Yposition Zposition Xrotation Zrotation Yrotation
			JOINT LeftFoot
			{
				OFFSET 0.000000 -0.000014 26.847282
				CHANNELS 6 Xposition Yposition Zposition Xrotation Zrotation Yrotation
				JOINT LeftToeBase
				{
					OFFSET 0.000000 9.631709 4.173746
					CHANNELS 6 Xposition Yposition Zposition Xrotation Zrotation Yrotation
					End Site
					{
						OFFSET 0.000000 2.568455 0.000000
					}
				}
			}
		}
	}
	JOINT RightUpLeg
	{
		OFFSET -6.421140 0.000000 0.000000
		CHANNELS 6 Xposition Yposition Zposition Xrotation Zrotation Yrotation
		JOINT RightLeg
		{
			OFFSET 0.000000 -0.000015 33.420120
			CHANNELS 6 Xposition Yposition Zposition Xrotation Zrotation Yrotation
			JOINT RightFoot
			{
				OFFSET 0.000000 -0.000014 26.847282
				CHANNELS 6 Xposition Yposition Zposition Xrotation Zrotation Yrotation
				JOINT RightToeBase
				{
					OFFSET 0.000000 9.631709 4.173746
					CHANNELS 6 Xposition Yposition Zposition Xrotation Zrotation Yrotation
					End Site
					{
						OFFSET 0.000000 2.568455 0.000000
					}
				}
			}
		}
	}
}
MOTION
Frames: 8
Frame Time: 0.041667
-1.713191 49.459820 -60.290485 38.463206 -83.676600 -34.028313 0.000006 0.000001 -5.265353 -9.643092 1.320154 1.203689 0.000004 0.000006 -11.914385 0.999195 0.331400 7.199541 -0.000008 0.000006 -13.198596 13.435707 20.791470 -18.484409 0.000012 1.284231 -9.952764 8.371736 22.897904 27.905650 2.563098 -0.280098 -10.769131 -3.664112 9.723877 12.832194 7.428651 -0.000002 -0.000016 17.305351 1.524784 -4.327611 19.264502 0.000002 0.000008 -18.420376 -0.785315 11.991510 17.229631 0.000001 -0.000008 -19.426270 2.812424 -42.307052 -2.568344 -0.280099 -10.769131 11.948998 6.157627 -4.928182 -7.428634 -0.000000 -0.000013 37.748321 -69.378152 40.543552 -19.264496 -0.000002 -0.000011 -12.763837 -14.328627 -17.224595 -17.229660 -0.000008 -0.000009 -15.385848 -4.500757 11.165551 6.421142 0.000001 -0.000006 -6.180578 -0.470758 -6.944839 0.000002 -0.000014 33.420120 11.941442 -0.945384 -3.920929 0.000003 -0.000011 26.847301 -12.846991 -24.028148 9.246946 0.000007 9.631709 4.173742 0.000000 0.000002 -0.000001 -6.421141 0.000000 -0.000014 -10.816851 -1.335524 -7.451264 0.000004 -0.000013 33.420113 25.436629 4.917416 5.272965 0.000010 -0.000013 26.847298 -21.702262 8.708024 -0.985061 0.000001 9.631713 4.173746 -0.000001 -0.000003 -0.000001 
-1.691511 49.501663 -60.296219 38.303725 -83.667024 -33.894240 0.000011 0.000001 -5.265332 -9.677200 1.331689 1.204903 -0.000002 0.000008 -11.914377 1.010979 0.334083 7.218694 0.000009 0.000005 -13.198627 13.406563 20.784532 -18.525959 -0.000008 1.284232 -9.952804 8.385243 22.896517 27.988140 2.563103 -0.280102 -10.769156 -3.730432 9.756912 12.863074 7.428643 -0.000003 0.000030 17.045261 1.391816 -4.308720 19.264496 -0.000006 -0.000017 -18.241058 -0.796505 11.895152 17.229630 0.000008 -0.000004 -19.236804 2.795615 -42.194791 -2.568330 -0.280103 -10.769137 11.946269 6.138694 -4.941219 -7.428625 -0.000005 0.000004 37.524690 -69.245482 40.712657 -19.264509 -0.000014 -0.000005 -12.665405 -14.353219 -17.152159 -17.229645 0.000005 -0.000013 -15.290108 -4.616369 11.090105 6.421146 0.000000 -0.000006 -6.150661 -0.413658 -6.885625 -0.000014 -0.000015 33.420120 11.957812 -0.964242 -3.940717 -0.000009 -0.000010 26.847282 -12.877537 -24.095946 9.239625 -0.000005 9.631711 4.173747 0.000002 0.000001 0.000001 -6.421139 0.000000 -0.000008 -10.741882 -1.167858 -7.433040 0.000001 -0.000019 33.420109 25.299068 4.959528 5.305920 0.000004 -0.000011 26.847286 -21.667677 8.521786 -0.955428 0.000012 9.631709 4.173741 0.000001 -0.000006 -0.000001 
-1.669871 49.537277 -60.303055 38.080108 -83.672304 -33.678246 -0.000001 0.000000 -5.265333 -9.663224 1.345229 1.188259 0.000000 0.000007 -11.914392 0.978869 0.341094 7.244519 0.000010 0.000006 -13.198632 13.418787 20.800885 -18.527754 -0.000012 1.284232 -9.952813 8.326807 22.925130 28.001706 2.563098 -0.280102 -10.769176 -3.703123 9.694228 12.884251 7.428656 -0.000000 -0.000003 16.867844 1.369478 -4.264663 19.264486 0.000002 -0.000010 -18.143050 -0.853866 11.852055 17.229633 0.000001 -0.000010 -19.144245 2.824561 -42.191837 -2.568333 -0.280099 -10.769162 11.966086 6.139763 -4.936640 -7.428635 -0.000000 -0.000025 37.441068 -69.140127 40.748605 -19.264492 -0.000006 -0.000004 -12.567358 -14.354501 -17.175265 -17.229645 0.000002 0.000008 -15.201727 -4.633952 11.207538 6.421137 -0.000000 0.000009 -6.089366 -0.357920 -6.868363 -0.000001 -0.000015 33.420124 11.906627 -0.987195 -3.907554 -0.000004 -0.000011 26.847290 -12.847740 -24.137791 9.215745 0.000007 9.631714 4.173747 0.000002 -0.000001 0.000001 -6.421143 0.000000 0.000007 -10.673934 -0.901372 -7.441049 -0.000008 -0.000014 33.420116 25.183387 4.918207 5.305422 -0.000011 -0.000011 26.847305 -21.651182 8.385544 -0.916122 -0.000004 9.631714 4.173746 -0.000000 -0.000003 -0.000001 
-1.650431 49.576794 -60.309719 38.073585 -83.679380 -33.710433 -0.000001 0.000001 -5.265328 -9.742963 1.330985 1.182362 0.000011 0.000002 -11.914372 1.013384 0.333054 7.304952 0.000002 0.000006 -13.198618 13.539439 20.867036 -18.513438 0.000005 1.284229 -9.952774 8.198363 23.003780 28.031945 2.563103 -0.280098 -10.769157 -3.612654 9.832188 12.879877 7.428650 0.000003 0.000003 16.675847 1.200935 -4.274312 19.264490 0.000002 -0.000012 -18.028291 -0.893803 11.836937 17.229635 0.000005 -0.000002 -19.026868 2.832725 -42.130489 -2.568323 -0.280099 -10.769156 11.977089 6.125706 -4.926272 -7.428625 -0.000004 0.000008 37.116481 -68.929074 41.030432 -19.264492 -0.000002 0.000001 -12.557990 -14.390951 -17.143710 -17.229649 -0.000016 -0.000023 -15.195842 -4.711424 11.072190 6.421144 0.000000 0.000004 -6.046599 -0.352990 -6.808640 0.000009 -0.000016 33.420132 11.842423 -0.935716 -3.881307 -0.000009 -0.000011 26.847290 -12.832878 -24.192648 9.251761 0.000004 9.631715 4.173746 -0.000003 -0.000002 -0.000002 -6.421142 0.000000 0.000007 -10.606553 -0.716452 -7.431688 0.000011 -0.000014 33.420120 25.055734 4.934779 5.384143 0.000016 -0.000012 26.847290 -21.598255 8.230112 -0.915926 -0.000007 9.631712 4.173746 -0.000002 -0.000002 -0.000001 
-1.632646 49.612923 -60.318367 38.093874 -83.694467 -33.750328 0.000005 0.000001 -5.265336 -9.742158 1.335281 1.184347 -0.000002 0.000006 -11.914397 0.978055 0.336486 7.322659 -0.000005 0.000004 -13.198606 13.534960 20.891476 -18.523314 0.000003 1.284234 -9.952775 8.185673 23.033708 28.069303 2.563101 -0.280099 -10.769140 -3.622012 9.829341 12.914780 7.428642 -0.000001 0.000012 16.564845 1.172288 -4.274204 19.264486 0.000001 0.000014 -17.928135 -0.918570 11.823315 17.229637 0.000004 -0.000003 -18.928317 2.843449 -42.127531 -2.568349 -0.280100 -10.769140 11.965547 6.186437 -4.911674 -7.428642 -0.000005 -0.000000 37.341546 -68.938035 40.807235 -19.264509 -0.000002 -0.000008 -12.609929 -14.360285 -17.197354 -17.229633 -0.000002 0.000006 -15.248928 -4.651732 11.187010 6.421137 0.000000 0.000009 -6.038965 -0.314670 -6.763741 0.000000 -0.000015 33.420120 11.895814 -0.991705 -3.899053 -0.000007 -0.000012 26.847301 -12.845173 -24.218855 9.233758 -0.000002 9.631711 4.173746 0.000001 -0.000006 0.000002 -6.421137 0.000000 0.000000 -10.551839 -0.471258 -7.443711 0.000007 -0.000021 33.420124 24.936642 4.866526 5.435559 -0.000000 -0.000011 26.847296 -21.545765 8.112318 -0.915439 0.000010 9.631712 4.173746 0.000000 0.000000 -0.000002 
-1.616676 49.647900 -60.325016 38.165451 -83.726426 -33.844451 -0.000011 0.000001 -5.265322 -9.722991 1.387068 1.214771 -0.000003 0.000008 -11.914385 0.901404 0.357985 7.304237 -0.000003 0.000003 -13.198601 13.538916 20.878971 -18.522756 -0.000001 1.284230 -9.952789 8.178881 23.020272 28.029247 2.563107 -0.280100 -10.769147 -3.576288 9.788282 12.924005 7.428645 -0.000007 -0.000018 16.535806 1.127782 -4.210777 19.264498 0.000003 0.000022 -17.882219 -0.934334 11.756358 17.229637 0.000001 -0.000044 -18.877012 2.837797 -42.052799 -2.568336 -0.280101 -10.769143 12.032516 6.178620 -4.947420 -7.428638 0.000001 -0.000002 36.699692 -68.721655 41.342732 -19.264500 -0.000007 -0.000009 -12.546420 -14.445271 -17.145769 -17.229635 -0.000002 -0.000001 -15.188391 -4.612789 11.197643 6.421137 0.000000 0.000016 -6.006079 -0.299105 -6.727253 0.000001 -0.000014 33.420120 11.891953 -1.033207 -3.865666 -0.000007 -0.000012 26.847275 -12.822991 -24.169686 9.178291 0.000010 9.631707 4.173751 0.000002 0.000002 0.000001 -6.421144 -0.000000 0.000016 -10.509694 -0.190377 -7.449223 -0.000008 -0.000016 33.420101 24.847615 4.815476 5.466160 -0.000001 -0.000012 26.847294 -21.498427 8.000608 -0.820960 -0.000003 9.631719 4.173750 -0.000003 0.000001 0.000001 
-1.603651 49.687656 -60.336990 38.219088 -83.753808 -33.929863 0.000005 0.000001 -5.265336 -9.723322 1.423940 1.229917 -0.000004 0.000008 -11.914382 0.879029 0.371347 7.312812 -0.000004 0.000006 -13.198606 13.526827 20.892268 -18.499193 -0.000001 1.284234 -9.952774 8.159895 23.037062 27.977389 2.563097 -0.280103 -10.769128 -3.556384 9.754970 12.934960 7.428637 -0.000001 -0.000013 16.406784 1.079074 -4.158625 19.264496 0.000001 -0.000001 -17.748465 -0.939371 11.703783 17.229637 0.000007 -0.000001 -18.750116 2.860064 -41.995667 -2.568339 -0.280103 -10.769129 12.045042 6.184227 -4.951153 -7.428628 -0.000006 0.000012 36.470236 -68.613717 41.531880 -19.264505 -0.000003 -0.000005 -12.510061 -14.410574 -17.175822 -17.229645 -0.000004 -0.000004 -15.159338 -4.683674 11.240339 6.421154 0.000000 0.000000 -5.957163 -0.353287 -6.688335 -0.000011 -0.000015 33.420113 11.850082 -1.052483 -3.791732 -0.000000 -0.000012 26.847296 -12.742608 -24.086502 9.108689 0.000011 9.631708 4.173747 0.000001 -0.000002 -0.000001 -6.421139 0.000000 -0.000001 -10.434354 -0.009459 -7.441697 -0.000001 -0.000014 33.420105 24.711138 4.791907 5.532913 0.000009 -0.000019 26.847301 -21.426230 7.915960 -0.784564 0.000015 9.631713 4.173747 0.000005 -0.000001 -0.000000 
-1.585081 49.727463 -60.340973 38.425671 -83.797118 -34.155184 0.000003 0.000001 -5.265334 -9.743337 1.472116 1.218774 0.000002 0.000006 -11.914381 0.862604 0.388387 7.341946 0.000014 0.000004 -13.198618 13.517391 20.898062 -18.569751 -0.000000 1.284233 -9.952765 8.210005 23.037728 28.068008 2.563111 -0.280104 -10.769165 -3.544704 9.752093 12.940012 7.428646 0.000000 -0.000010 16.251117 0.997933 -4.131701 19.264498 -0.000004 -0.000029 -17.624168 -0.894996 11.646701 17.229622 0.000001 0.000011 -18.631173 2.865850 -41.930801 -2.568326 -0.280100 -10.769167 12.036716 6.195008 -4.954928 -7.428643 -0.000001 0.000003 35.935688 -68.320709 41.996436 -19.264503 -0.000009 -0.000003 -12.459941 -14.533963 -17.071271 -17.229645 0.000003 -0.000013 -15.113303 -4.678111 11.223484 6.421142 0.000001 0.000011 -5.942396 -0.322464 -6.646264 -0.000003 -0.000015 33.420116 11.860731 -1.038833 -3.770462 -0.000000 -0.000012 26.847277 -12.747438 -24.082373 9.102575 0.000007 9.631709 4.173750 -0.000003 0.000003 -0.000002 -6.421127 0.000000 0.000005 -10.399602 0.256924 -7.450916 0.000005 -0.000014 33.420105 24.660601 4.793703 5.563185 -0.000001 -0.000013 26.847305 -21.400883 7.723560 -0.702908 -0.000006 9.631716 4.173745 -0.000007 -0.000002 -0.000001 
